<svg xmlns="http://www.w3.org/2000/svg" xmlns:xlink="http://www.w3.org/1999/xlink" viewBox="0 0 510.66 352.19"><defs><style>.cls-1{fill:url(#linear-gradient);}</style><linearGradient id="linear-gradient" x1="255.33" y1="430.81" x2="255.33" y2="31.31" gradientUnits="userSpaceOnUse"><stop offset="0" stop-color="#81d929"/><stop offset="1" stop-color="#00a7e7"/></linearGradient></defs><g id="Layer_2" data-name="Layer 2"><g id="OBJECTS"><path class="cls-1" d="M222.62,12.74a97.68,97.68,0,0,0-80,28.71c-16,16.37-35.93,28.35-57.5,36.12-70.9,25.55-107.6,110.24-70.4,181.48C43,313.2,104.41,338.21,160.12,324.78a149.59,149.59,0,0,1,99,10.34,175.76,175.76,0,0,0,157.06-3c86.27-45.05,119.63-152.4,74.12-238.42C450.27,18.09,362.93-16.37,284,7.46A155.07,155.07,0,0,1,222.62,12.74Z"/></g></g></svg>