<svg xmlns="http://www.w3.org/2000/svg" xmlns:xlink="http://www.w3.org/1999/xlink" viewBox="0 0 316.96 140.25"><defs><style>.cls-1{fill:url(#linear-gradient);}</style><linearGradient id="linear-gradient" x1="158.48" y1="-17.53" x2="158.48" y2="133.43" gradientUnits="userSpaceOnUse"><stop offset="0" stop-color="#4db7a0"/><stop offset="1" stop-color="#006a97"/></linearGradient></defs><g id="Layer_2" data-name="Layer 2"><g id="OBJECTS"><polygon class="cls-1" points="312.18 51.81 312.18 40.6 297.71 40.6 297.71 0 292.42 0 292.42 40.6 277.94 40.6 277.94 51.81 273.16 51.81 273.16 75.67 253.21 75.67 253.21 29.05 238.56 29.05 238.56 14.41 233.27 14.41 233.27 29.05 218.62 29.05 218.62 91.69 188.11 91.69 188.11 36.53 153.52 36.53 153.52 75.32 149.92 75.32 149.92 21.68 135.26 21.68 135.26 13.51 129.97 13.51 129.97 21.68 115.32 21.68 115.32 85 87.94 85 87.94 58.74 53.34 58.74 53.34 96.87 0 96.87 0 140.25 53.34 140.25 71.28 140.25 87.94 140.25 110.51 140.25 115.32 140.25 116.91 140.25 133.18 140.25 149.92 140.25 153.52 140.25 167.77 140.25 184.51 140.25 188.11 140.25 218.62 140.25 219.1 140.25 244.33 140.25 253.21 140.25 273.16 140.25 278.92 140.25 316.96 140.25 316.96 51.81 312.18 51.81"/></g></g></svg>